<svg width="14" height="18" viewBox="0 0 14 18" fill="none" xmlns="http://www.w3.org/2000/svg">
<path d="M1.66242 11.3433C1.59873 11.4159 1.52497 11.5301 1.49477 11.6548L0.548802 14.4188L0.59236 14.4294L3.48116 13.5443C3.57835 13.5238 3.6856 13.4618 3.80292 13.3581L11.4926 5.97679L9.36216 3.92037L1.67249 11.3017L1.66242 11.3433ZM0.521885 14.7204C0.478327 14.7099 0.434769 14.6993 0.357722 14.6367C0.280673 14.574 0.257251 14.4803 0.287455 14.3556L1.18986 11.581C1.22006 11.4563 1.29383 11.3421 1.36759 11.2279L1.37765 11.1863L9.18464 3.70132C9.23827 3.67029 9.33545 3.6498 9.36894 3.70193L11.687 5.93583C11.7204 5.98795 11.7439 6.08166 11.6902 6.11269L3.82963 13.6287C3.82963 13.6287 3.81956 13.6703 3.776 13.6597C3.66875 13.7218 3.5615 13.7839 3.41069 13.8354L0.521885 14.7204C0.468259 14.7515 0.424701 14.7409 0.381144 14.7304L0.521885 14.7204Z" fill="white"/>
<path d="M1.66242 11.3433C1.59873 11.4159 1.52497 11.5301 1.49477 11.6548L0.548802 14.4188L0.59236 14.4294L3.48116 13.5443C3.57835 13.5238 3.6856 13.4618 3.80292 13.3581L11.4926 5.97679L9.36216 3.92037L1.67249 11.3017L1.66242 11.3433ZM0.521885 14.7204C0.478327 14.7099 0.434769 14.6993 0.357721 14.6367C0.280673 14.574 0.257251 14.4803 0.287455 14.3556L1.18986 11.581C1.22006 11.4563 1.29383 11.3421 1.36759 11.2279L1.37765 11.1863L9.18464 3.70132C9.23827 3.67029 9.33545 3.6498 9.36894 3.70193L11.687 5.93583C11.7204 5.98795 11.7439 6.08166 11.6902 6.11269L3.82963 13.6287C3.82963 13.6287 3.81956 13.6703 3.776 13.6597C3.66875 13.7218 3.5615 13.7839 3.41069 13.8354L0.521885 14.7204C0.468259 14.7515 0.424701 14.7409 0.381144 14.7304L0.521885 14.7204Z" stroke="white" stroke-width="0.363997" stroke-miterlimit="2.613" stroke-linecap="round" stroke-linejoin="round"/>
<path d="M10.237 3.16384L12.3674 5.22027L12.9742 4.61891C13.2624 4.3806 13.2324 3.93318 12.9779 3.65146L11.8523 2.58664C11.7418 2.47184 11.6547 2.45074 11.524 2.4191C11.2627 2.35582 11.0147 2.42782 10.8337 2.60407L10.2269 3.20542L10.237 3.16384ZM12.3506 5.48029C12.307 5.46974 12.307 5.46974 12.307 5.46974L9.989 3.23584C9.95551 3.18371 9.93209 3.09001 9.98572 3.05898L10.6997 2.39556C10.9343 2.18828 11.2795 2.0958 11.5844 2.16963C11.7587 2.21182 11.9228 2.29559 12.0334 2.41039L13.1589 3.47521C13.534 3.83015 13.5238 4.44389 13.1617 4.79639L12.4478 5.4598C12.3941 5.49083 12.3941 5.49083 12.3506 5.48029Z" fill="white" stroke="white" stroke-width="0.363997" stroke-miterlimit="2.613" stroke-linecap="round" stroke-linejoin="round"/>
<path d="M9.57663 3.79623L11.7071 5.85266L12.1864 5.39653L10.056 3.3401L9.57663 3.79623ZM11.6801 6.15426C11.6366 6.14371 11.6366 6.14371 11.6366 6.14371L9.31856 3.90981C9.28507 3.85769 9.26165 3.76398 9.31528 3.73295L9.97564 3.10057C9.9857 3.05899 10.0293 3.06953 10.0728 3.08008C10.1164 3.09063 10.1599 3.10118 10.1599 3.10118L12.4779 5.33508C12.5215 5.34562 12.5114 5.3872 12.5014 5.42878C12.4913 5.47036 12.4812 5.51194 12.4812 5.51194L11.8209 6.14432C11.8108 6.1859 11.7672 6.17535 11.7237 6.1648C11.7237 6.1648 11.7237 6.1648 11.6801 6.15426Z" fill="white" stroke="white" stroke-width="0.363997" stroke-miterlimit="2.613" stroke-linecap="round" stroke-linejoin="round"/>
<path d="M2.0602 14.0806L2.01664 14.07L0.934683 13.0157C0.901193 12.9636 0.911261 12.922 0.921329 12.8804C0.974954 12.8494 1.01851 12.86 1.06207 12.8705L2.14403 13.9248C2.17752 13.9769 2.16745 14.0185 2.15738 14.0601C2.14731 14.1016 2.10376 14.0911 2.0602 14.0806Z" fill="white" stroke="white" stroke-width="0.363997" stroke-miterlimit="2.613" stroke-linecap="round" stroke-linejoin="round"/>
<path d="M3.77597 13.6597L3.73241 13.6492L1.44789 11.4674C1.4144 11.4153 1.39097 11.3216 1.4446 11.2906C1.49823 11.2595 1.59541 11.239 1.6289 11.2912L3.91342 13.4729C3.94691 13.5251 3.97033 13.6188 3.91671 13.6498C3.86308 13.6808 3.86308 13.6808 3.81952 13.6703L3.77597 13.6597Z" fill="white" stroke="white" stroke-width="0.363997" stroke-miterlimit="2.613" stroke-linecap="round" stroke-linejoin="round"/>
</svg>
